<svg width="500" height="500" viewBox="0 0 500 500" fill="none" xmlns="http://www.w3.org/2000/svg">
<rect width="500" height="500" fill="black"/>
<g style="mix-blend-mode:luminosity">
<path d="M323.172 269.404C327.865 267.264 329.922 261.725 327.798 257.028C325.66 252.33 320.133 250.271 315.447 252.397C310.753 254.538 308.696 260.076 310.821 264.774C312.959 269.471 318.486 271.53 323.172 269.404Z" fill="white"/>
<path d="M311.157 303.05C312.192 297.996 308.925 293.056 303.875 292.033C298.833 290.997 293.904 294.274 292.882 299.328C291.847 304.382 295.121 309.308 300.164 310.345C305.207 311.381 310.135 308.104 311.157 303.05Z" fill="white"/>
<path d="M262.763 326.198C266.569 322.712 266.818 316.803 263.341 313.007C259.859 309.198 253.962 308.949 250.163 312.435C246.371 315.921 246.109 321.83 249.592 325.632C253.075 329.428 258.971 329.69 262.77 326.204H262.763V326.198Z" fill="white"/>
<path d="M222.043 309.609C221.465 304.481 216.839 300.8 211.729 301.386C206.605 301.971 202.928 306.601 203.513 311.722C204.098 316.844 208.717 320.525 213.833 319.94C218.957 319.354 222.621 314.724 222.05 309.603L222.043 309.609Z" fill="white"/>
<path d="M178.39 287.205C182.875 289.749 188.563 288.167 191.098 283.672C193.632 279.183 192.059 273.483 187.574 270.952C183.09 268.415 177.402 269.99 174.867 274.486C172.332 278.974 173.905 284.675 178.39 287.205Z" fill="white"/>
<path d="M191.485 194.511C190.449 199.565 193.724 204.491 198.76 205.514C203.802 206.55 208.731 203.273 209.766 198.219C210.801 193.165 207.527 188.238 202.484 187.209C197.435 186.186 192.513 189.45 191.491 194.504L191.485 194.511Z" fill="white"/>
<path d="M170.632 235.559C169.597 240.613 172.871 245.539 177.907 246.562C182.95 247.598 187.878 244.321 188.914 239.267C189.949 234.213 186.675 229.287 181.632 228.257C176.583 227.234 171.661 230.498 170.639 235.552L170.632 235.559Z" fill="white"/>
<path d="M235.189 170.693C231.397 174.179 231.134 180.088 234.617 183.89C238.1 187.686 243.997 187.949 247.796 184.463C251.601 180.976 251.85 175.068 248.374 171.272C244.891 167.463 238.994 167.214 235.196 170.7H235.189V170.693Z" fill="white"/>
<path d="M277.931 190.649C278.516 195.77 283.135 199.458 288.245 198.873C293.362 198.287 297.046 193.657 296.461 188.536C295.876 183.414 291.257 179.733 286.14 180.319C281.024 180.904 277.339 185.534 277.924 190.656L277.931 190.649Z" fill="white"/>
<path d="M323.082 221.058C325.616 216.57 324.043 210.87 319.559 208.339C315.074 205.802 309.386 207.377 306.851 211.872C304.316 216.361 305.889 222.061 310.374 224.592C314.859 227.129 320.547 225.554 323.082 221.058Z" fill="white"/>
<path d="M285.229 350.232C290.689 353.342 297.641 351.417 300.747 345.946C303.854 340.474 301.938 333.516 296.465 330.406C291.005 327.297 284.053 329.222 280.946 334.693C277.84 340.165 279.756 347.123 285.223 350.232H285.229Z" fill="white"/>
<path d="M234.819 357.545C240.541 354.941 243.076 348.191 240.48 342.45C237.878 336.716 231.141 334.179 225.406 336.784C219.684 339.388 217.149 346.138 219.745 351.878C222.34 357.612 229.097 360.149 234.819 357.545Z" fill="white"/>
<path d="M174.676 328.116C180.834 329.382 186.852 325.404 188.116 319.233C189.38 313.062 185.413 307.039 179.254 305.78C173.089 304.515 167.078 308.492 165.814 314.663C164.55 320.835 168.517 326.858 174.676 328.123V328.116Z" fill="white"/>
<path d="M159.363 269.626C164.003 265.38 164.332 258.165 160.09 253.515C155.854 248.865 148.646 248.542 144.007 252.788C139.368 257.035 139.038 264.249 143.281 268.9C147.516 273.55 154.724 273.873 159.363 269.626Z" fill="white"/>
<path d="M165.228 212.563C171.474 211.856 175.973 206.21 175.273 199.965C174.567 193.713 168.933 189.211 162.693 189.917C156.447 190.624 151.949 196.27 152.655 202.522C153.361 208.774 158.995 213.276 165.235 212.583V212.57L165.228 212.563Z" fill="white"/>
<path d="M214.719 150.021C209.259 146.911 202.307 148.836 199.201 154.307C196.094 159.779 198.011 166.737 203.484 169.847C208.943 172.956 215.895 171.031 219.002 165.56C222.108 160.088 220.192 153.13 214.726 150.021H214.719Z" fill="white"/>
<path d="M265.129 142.71C259.407 145.314 256.866 152.078 259.468 157.805C262.07 163.532 268.82 166.076 274.542 163.471C280.264 160.867 282.799 154.117 280.203 148.376C277.601 142.643 270.864 140.105 265.129 142.71Z" fill="white"/>
<path d="M325.292 172.136C319.14 170.871 313.115 174.849 311.851 181.02C310.587 187.191 314.561 193.214 320.713 194.479C326.865 195.745 332.89 191.767 334.154 185.596C335.418 179.425 331.451 173.402 325.292 172.143V172.136Z" fill="white"/>
<path d="M355.942 247.455C360.582 243.209 360.911 235.995 356.668 231.351C352.433 226.701 345.225 226.378 340.586 230.624C335.94 234.877 335.617 242.085 339.859 246.735C344.095 251.386 351.303 251.709 355.942 247.462V247.455Z" fill="white"/>
<path d="M337.255 310.351C343.508 309.644 347.999 303.998 347.293 297.746C346.587 291.494 340.966 286.992 334.713 287.698C328.474 288.405 323.969 294.051 324.668 300.296C325.368 306.555 331.009 311.051 337.248 310.357H337.262L337.255 310.351Z" fill="white"/>
<path d="M311.281 158.31C318.933 157.442 324.439 150.511 323.565 142.839C322.691 135.173 315.779 129.662 308.121 130.536C300.463 131.411 294.963 138.336 295.837 146.008C296.711 153.674 303.623 159.185 311.281 158.31Z" fill="white"/>
<path d="M381.502 268.513C378.309 261.494 370.039 258.398 363.019 261.601C356.013 264.805 352.92 273.083 356.107 280.115C359.301 287.141 367.585 290.23 374.59 287.027C381.596 283.823 384.696 275.532 381.502 268.513Z" fill="white"/>
<path d="M334.675 325.928C327.124 324.387 319.762 329.279 318.222 336.844C316.682 344.408 321.557 351.777 329.108 353.318C336.658 354.859 344.02 349.967 345.56 342.416C347.107 334.852 342.219 327.469 334.675 325.941V325.928Z" fill="white"/>
<path d="M273.15 381.057C278.832 375.842 279.215 367.005 274.018 361.319C268.814 355.632 259.986 355.248 254.304 360.464C248.623 365.68 248.239 374.516 253.45 380.209C258.654 385.896 267.482 386.279 273.164 381.064H273.157L273.15 381.057Z" fill="white"/>
<path d="M188.701 341.927C181.043 342.802 175.543 349.727 176.417 357.399C177.291 365.065 184.203 370.576 191.861 369.701C199.519 368.826 205.019 361.901 204.145 354.23C203.271 346.564 196.353 341.059 188.701 341.927Z" fill="white"/>
<path d="M151.807 307.379C155.6 300.662 153.24 292.136 146.529 288.333C139.819 284.531 131.314 286.907 127.515 293.623C123.716 300.339 126.083 308.866 132.78 312.662C139.49 316.464 147.995 314.088 151.794 307.372H151.801L151.807 307.379Z" fill="white"/>
<path d="M143.879 220.144C140.685 213.125 132.401 210.03 125.395 213.233C118.389 216.436 115.29 224.727 118.484 231.753C121.677 238.773 129.961 241.868 136.973 238.672C143.979 235.468 147.079 227.177 143.885 220.151H143.879V220.144Z" fill="white"/>
<path d="M165.292 174.321C172.843 175.862 180.205 170.97 181.745 163.405C183.285 155.841 178.403 148.465 170.853 146.931C163.302 145.39 155.94 150.282 154.4 157.846C152.861 165.411 157.742 172.787 165.292 174.321Z" fill="white"/>
<path d="M226.848 119.19C221.166 124.406 220.783 133.242 225.994 138.935C231.198 144.622 240.026 145.006 245.707 139.79C251.389 134.574 251.772 125.738 246.561 120.045C241.35 114.358 232.529 113.975 226.848 119.19Z" fill="white"/>
<path d="M348.189 192.868C344.39 199.585 346.757 208.111 353.467 211.914C360.177 215.709 368.696 213.347 372.482 206.624C376.28 199.908 373.914 191.381 367.204 187.579C360.493 183.776 351.981 186.139 348.189 192.862V192.868Z" fill="white"/>
<path d="M319.117 369.437C310.995 364.813 300.668 367.667 296.055 375.803C291.436 383.939 294.287 394.283 302.409 398.906C310.531 403.516 320.859 400.663 325.471 392.54C330.077 384.404 327.239 374.06 319.117 369.45V369.437Z" fill="white"/>
<path d="M213.477 378.922C204.965 382.784 201.2 392.825 205.059 401.352C208.918 409.865 218.943 413.634 227.455 409.771C235.961 405.908 239.733 395.867 235.866 387.341C232 378.827 221.976 375.052 213.47 378.922H213.477Z" fill="white"/>
<path d="M144.853 332.835C135.702 330.957 126.76 336.866 124.884 346.032C123.008 355.198 128.905 364.149 138.055 366.026C147.206 367.904 156.149 361.995 158.024 352.829C159.9 343.663 154.004 334.712 144.853 332.828V332.835Z" fill="white"/>
<path d="M115.329 279.099C122.234 272.786 122.718 262.066 116.411 255.168C110.105 248.256 99.4074 247.772 92.509 254.091C85.6106 260.397 85.1265 271.111 91.4265 278.022C97.7198 284.934 108.424 285.411 115.329 279.099Z" fill="white"/>
<path d="M120.291 160.661C111.006 161.711 104.329 170.089 105.365 179.383C106.413 188.684 114.778 195.366 124.07 194.33C133.355 193.28 140.038 184.902 138.989 175.601C137.954 166.307 129.576 159.618 120.298 160.654L120.291 160.661Z" fill="white"/>
<path d="M180.903 130.856C189.025 135.479 199.352 132.626 203.965 124.489C208.584 116.353 205.733 106.009 197.611 101.399C189.489 96.7895 179.161 99.6294 174.549 107.766C169.93 115.902 172.781 126.246 180.903 130.856Z" fill="white"/>
<path d="M286.522 121.374C295.027 117.497 298.799 107.457 294.94 98.9434C291.074 90.4167 281.049 86.6481 272.543 90.5244C264.031 94.3941 260.266 104.442 264.132 112.955C267.985 121.475 278.016 125.25 286.528 121.374H286.522Z" fill="white"/>
<path d="M341.951 147.458C340.075 156.624 345.972 165.574 355.123 167.459C364.274 169.336 373.216 163.428 375.092 154.262C376.968 145.096 371.071 136.145 361.92 134.261C352.77 132.383 343.827 138.292 341.951 147.458Z" fill="white"/>
<path d="M384.668 221.191C377.769 227.497 377.292 238.217 383.585 245.122C389.892 252.027 400.596 252.505 407.487 246.199C414.386 239.893 414.87 229.173 408.57 222.261C402.277 215.35 391.573 214.872 384.668 221.184V221.191Z" fill="white"/>
<path d="M379.727 339.666C389.012 338.616 395.695 330.224 394.653 320.93C393.604 311.629 385.24 304.947 375.955 305.997C366.669 307.046 359.986 315.432 361.028 324.732C362.077 334.033 370.441 340.716 379.727 339.666Z" fill="white"/>
</g>
</svg>
